<svg width="100" height="124" viewBox="0 0 100 124" fill="none" xmlns="http://www.w3.org/2000/svg">
<g clip-path="url(#clip0_551_259)">
<path d="M99.21 43.29C99.21 64.18 77 81.12 49.61 81.12C41.59 81.12 34.02 79.67 27.32 77.09C26.81 76.89 11.04 88.09 11.39 84.73C11.71 81.67 18.23 72.78 15.03 70.4C5.75 63.54 0 53.93 0 43.29C0 22.4 22.21 5.45999 49.6 5.45999C76.99 5.45999 99.2 22.4 99.2 43.29H99.21Z" fill="#57287C"/>
<path d="M16.29 29.91C16.32 26.17 16.99 22.67 18.91 19.51C19.4 18.71 20 17.95 20.64 17.26C21.22 16.64 21.98 16.53 22.58 17.28C24.75 20.01 27.66 21.3 30.97 22.17C32.78 22.65 34.45 23.82 36.03 24.91C37.22 25.73 37.08 26.33 35.82 26.98C29.32 30.3 25.24 35.53 23.47 42.59C23.23 43.53 22.84 44.31 21.76 44.46C20.64 44.62 20 44.02 19.53 43.08C17.42 38.91 16.39 34.49 16.3 29.92L16.29 29.91Z" fill="#FFB546"/>
<path d="M27.74 39.56C32.41 38.11 32.29 31.77 36.18 29.62C37.87 28.69 38.66 29.13 39.07 31.04C39.76 34.27 39.55 38.73 37.82 40.29C36.56 41.44 34.38 42.17 32.39 42.17C30.77 42.17 24.92 40.43 27.74 39.55V39.56Z" fill="#FFB546"/>
<path d="M78.42 65.15C79.07 65.19 79.49 67.42 79.49 70.43C81.73 66.75 83.03 62.44 83.03 57.81C83.03 51.23 80.42 45.27 76.19 40.88C75.4 39.19 74.66 37.75 74.07 36.84C72.77 34.85 74.4 32.45 74.4 32.45C74.4 32.45 77.56 33.25 80.34 31.81C78.28 29.61 75.31 25.18 74.97 23.61C74.74 16.84 72.25 16.56 72.25 16.56C72.25 16.56 78.23 14.89 77.43 12.65C71.21 12.41 67.8 9.58999 66.99 8.76999C60.03 1.69999 49.7 -1.63001 39.16 0.779993C34.58 1.82999 30.36 3.68999 26.99 7.06999C24.53 9.53999 25.02 11.2 28.31 12.14C30.61 12.8 32.24 14.14 32.95 16.52C33.68 18.97 35.12 20.94 37.09 22.57C41.82 26.46 43.39 31.47 41.91 37.33C41.86 37.52 41.81 37.8 41.75 38.17C43.26 38.6 44.8 40.1 45.4 39.77C50.11 37.15 56.59 35.26 60.05 35.39C68.52 35.72 71.92 36.53 71.92 44.49C71.92 52.45 70.91 40.65 58.71 40.65C46.51 40.65 37.65 57.77 37.65 49.81C37.65 47.31 39.18 44.93 41.49 42.85C41.79 42.58 41.07 42.2 40.33 41.68C36.54 45.98 34.23 51.63 34.23 57.82C34.23 62.86 35.76 67.55 38.38 71.44C38.65 73.38 39.04 75.92 39.36 77.37C41.31 86.3 36.86 123.54 36.86 123.54C36.86 123.54 48.43 117.26 49.98 113.17C53.83 102.99 48.04 73.92 52.44 73.03C54.77 72.56 54.53 109.09 54.3 115.39C56.24 113.58 61.46 108.67 63.1 103.26C64.81 97.62 60.82 58.46 62.74 57.74C63.17 57.58 63.53 58.16 63.85 59.26C64.01 60 64.16 60.74 64.32 61.48C65.74 70.21 65.9 91.49 66.79 96.49C69.41 91.57 76.68 86.18 78.09 72.82C78.28 68.96 77.66 65.13 78.43 65.18L78.42 65.15Z" fill="#8E50C0"/>
<path d="M52.86 24.3C56.98 24.3 60.32 20.96 60.32 16.84C60.32 12.72 56.98 9.38 52.86 9.38C48.74 9.38 45.4 12.72 45.4 16.84C45.4 20.96 48.74 24.3 52.86 24.3Z" fill="white"/>
<path d="M52.86 9.38C56.98 9.38 60.32 12.72 60.32 16.84C60.32 20.96 56.98 24.3 52.86 24.3C48.74 24.3 45.4 20.96 45.4 16.84C45.4 12.72 48.74 9.38 52.86 9.38M52.86 7.81C47.88 7.81 43.83 11.86 43.83 16.84C43.83 21.82 47.88 25.87 52.86 25.87C57.84 25.87 61.89 21.82 61.89 16.84C61.89 11.86 57.84 7.81 52.86 7.81V7.81Z" fill="#4D256D"/>
<path d="M56.79 13.61C55.4 11.89 53.04 11.32 51.06 12.22C52.73 13.61 53.15 15.03 52.27 16.35C51.35 17.72 49.86 17.83 47.86 16.65C47.7 18.88 48.95 20.81 51.06 21.57C53.23 22.36 55.62 21.59 56.97 19.68C58.24 17.87 58.17 15.3 56.79 13.6V13.61ZM54.25 20.56C53.6 20.56 53.07 20.03 53.07 19.38C53.07 18.73 53.6 18.2 54.25 18.2C54.9 18.2 55.43 18.73 55.43 19.38C55.43 20.03 54.9 20.56 54.25 20.56Z" fill="#4D256D"/>
<path d="M29.5595 17.8319C30.1224 17.1724 29.9112 16.068 29.0878 15.3653C28.2645 14.6626 27.1407 14.6276 26.5778 15.2871C26.0149 15.9466 26.226 17.051 27.0494 17.7537C27.8728 18.4564 28.9966 18.4914 29.5595 17.8319Z" fill="#FF6686"/>
<path d="M69.95 65.73C68.55 64.83 65.23 55.27 62.04 56.26C59.13 57.16 61.04 68.57 58.09 69.79C56.7 70.37 48.84 68.7 48.84 68.7C48.84 68.7 49.66 94.44 45.63 93.92C43.73 93.67 41.7 68.62 41.7 68.62L39.38 72.16C38.8 67.67 38.72 63.15 39.46 58.6C40.92 49.6 45.38 42.48 52.57 39.77C57.59 37.88 66.8 36.59 73.14 40.53C75.97 42.29 79.91 49.8 80.4 54.45C80.82 58.38 74.25 60.16 74.25 60.16C74.25 60.16 71.72 66.88 69.94 65.74L69.95 65.73Z" fill="#8048B5"/>
<path d="M28.27 48.7H9.39C8.4953 48.7 7.77 49.4253 7.77 50.32V50.33C7.77 51.2247 8.4953 51.95 9.39 51.95H28.27C29.1647 51.95 29.89 51.2247 29.89 50.33V50.32C29.89 49.4253 29.1647 48.7 28.27 48.7Z" fill="#8048B5"/>
<path d="M28.27 55.96H12.74C11.8453 55.96 11.12 56.6853 11.12 57.58V57.59C11.12 58.4847 11.8453 59.21 12.74 59.21H28.27C29.1647 59.21 29.89 58.4847 29.89 57.59V57.58C29.89 56.6853 29.1647 55.96 28.27 55.96Z" fill="#8048B5"/>
</g>
<defs>
<clipPath id="clip0_551_259">
<rect width="99.21" height="123.53" fill="white"/>
</clipPath>
</defs>
</svg>
