<svg width="22" height="20" viewBox="0 0 22 20" fill="none" xmlns="http://www.w3.org/2000/svg">
<path d="M13.332 2.2L15.345 4.4H19.8V17.6H2.2V4.4H6.655L8.668 2.2H13.332ZM14.3 0H7.7L5.687 2.2H2.2C0.99 2.2 0 3.19 0 4.4V17.6C0 18.81 0.99 19.8 2.2 19.8H19.8C21.01 19.8 22 18.81 22 17.6V4.4C22 3.19 21.01 2.2 19.8 2.2H16.313L14.3 0ZM11 7.7C12.815 7.7 14.3 9.185 14.3 11C14.3 12.815 12.815 14.3 11 14.3C9.185 14.3 7.7 12.815 7.7 11C7.7 9.185 9.185 7.7 11 7.7ZM11 5.5C7.964 5.5 5.5 7.964 5.5 11C5.5 14.036 7.964 16.5 11 16.5C14.036 16.5 16.5 14.036 16.5 11C16.5 7.964 14.036 5.5 11 5.5Z" fill="#FFB546"/>
</svg>
