<svg width="51" height="55" viewBox="0 0 51 55" fill="none" xmlns="http://www.w3.org/2000/svg">
<g clip-path="url(#clip0_469_281)">
<path d="M24.1058 25.1615C24.2231 25.1615 24.3454 25.1409 24.4779 25.0894C24.9928 24.8989 25.1049 24.4713 25.1202 23.9769C25.1253 23.7554 25.1406 23.5339 25.1559 23.3176C24.7073 23.0909 24.2486 22.8798 23.7745 22.6892C23.0252 22.3853 22.2708 22.1483 21.5112 21.9578C21.9802 22.8952 22.546 23.7966 23.224 24.6413C23.4737 24.9555 23.749 25.1615 24.1007 25.1615H24.1058Z" fill="#8E50C0"/>
<path d="M27.1133 24.4713C26.8992 26.1247 25.8339 26.784 25.1763 27.0261C24.8246 27.1549 24.4626 27.2219 24.1058 27.2219C23.4533 27.2219 22.495 27.0004 21.6437 25.9342C20.5784 24.6053 19.7271 23.1321 19.0899 21.5354C11.8057 20.8246 4.76609 25.0173 1.97268 32.3314C1.00417 34.8708 0.754393 37.4925 0.993974 40.1967C1.09592 41.3762 1.11631 42.5866 0.953194 43.7507C0.835952 44.5851 0.351695 45.368 -0.00512695 46.2746C0.897122 46.4703 1.7484 46.1252 2.59457 45.7647C6.43295 52.5122 12.1472 55.5614 20.0126 54.9073C18.519 53.769 17.6881 52.4607 17.7544 50.7042C17.8207 48.9736 18.6515 47.6962 19.982 46.8618C19.671 45.502 19.2174 44.2091 19.1001 42.8905C18.7892 39.4859 20.089 36.8178 23.0455 35.0562C24.274 34.3196 25.2476 33.341 25.8593 32.0378C26.4557 30.7707 27.4752 30.1578 28.8057 29.993C30.7121 29.756 31.125 28.865 29.9781 27.2734C29.1676 26.1505 28.1991 25.2337 27.1184 24.4713H27.1133Z" fill="#8E50C0"/>
<path d="M33.9184 40.9847C34.2243 38.8935 34.158 36.8744 33.3679 34.9377C33.1691 34.4432 32.904 33.9694 32.6033 33.5315C32.3331 33.1349 31.9202 33.0062 31.5328 33.3719C30.0953 34.7059 28.3724 35.1746 26.466 35.3755C25.4261 35.4837 24.3964 35.9988 23.4279 36.4623C22.6989 36.8126 22.7244 37.168 23.3667 37.6367C26.68 40.0627 28.4845 43.3438 28.8516 47.4489C28.9025 47.9949 29.0504 48.4636 29.6366 48.6439C30.2432 48.8294 30.6459 48.5512 30.9925 48.067C32.5217 45.9192 33.4699 43.5344 33.9184 40.9847V40.9847Z" fill="#FFB546"/>
<path d="M26.7514 45.3835C24.2893 44.1679 24.9061 40.6242 22.9385 39.0892C22.0821 38.4196 21.6029 38.5999 21.2155 39.6301C20.5529 41.3762 20.2878 43.8898 21.1085 44.9148C21.71 45.6668 22.8518 46.2643 23.9529 46.4394C24.85 46.5785 28.2398 46.1149 26.7514 45.3835Z" fill="#FFB546"/>
<path d="M14.803 34.7008C17.1115 34.7008 18.9829 32.8098 18.9829 30.4771C18.9829 28.1445 17.1115 26.2535 14.803 26.2535C12.4945 26.2535 10.623 28.1445 10.623 30.4771C10.623 32.8098 12.4945 34.7008 14.803 34.7008Z" fill="white"/>
<path d="M15.4503 26.2999C17.734 26.6604 19.2938 28.8186 18.937 31.1261C18.5802 33.4337 16.4443 35.0098 14.1607 34.6493C11.877 34.2887 10.3172 32.1306 10.674 29.823C11.0309 27.5155 13.1667 25.9393 15.4503 26.2999M15.588 25.4191C12.8303 24.9864 10.2356 26.8974 9.80236 29.6839C9.37418 32.4705 11.2653 35.0922 14.0231 35.5301C16.7808 35.9679 19.3754 34.0518 19.8087 31.2652C20.2419 28.4786 18.3457 25.8569 15.588 25.4191V25.4191Z" fill="#4D256D"/>
<path d="M12.2848 31.7133C12.8659 32.898 14.125 33.5367 15.3943 33.2843C16.6279 33.0422 17.4842 32.0739 17.5913 30.812C16.3832 31.2961 15.5676 31.1055 15.1802 30.2557C14.8081 29.4418 15.1598 28.6847 16.2099 28.0511C15.1904 27.3764 13.8345 27.4846 12.9169 28.3241C12.0096 29.1586 11.7445 30.5905 12.2899 31.7082L12.2848 31.7133ZM13.1667 31.6773C13.2228 31.3116 13.5592 31.0643 13.9211 31.121C14.283 31.1777 14.5277 31.5176 14.4716 31.8833C14.4156 32.249 14.0791 32.4963 13.7172 32.4396C13.3553 32.3829 13.1106 32.043 13.1667 31.6773V31.6773Z" fill="#4D256D"/>
<path d="M29.0159 33.2452C29.5338 32.9231 29.7467 32.3223 29.4914 31.9032C29.2361 31.484 28.6094 31.4054 28.0915 31.7274C27.5736 32.0495 27.3607 32.6503 27.616 33.0694C27.8713 33.4885 28.4981 33.5672 29.0159 33.2452Z" fill="#FF6686"/>
<path d="M20.242 18.4192C19.8597 16.5546 19.8189 14.7363 20.4357 12.9542C20.5937 12.5009 20.8078 12.0579 21.0525 11.651C21.2768 11.2802 21.6387 11.1463 22.0108 11.4502C23.3667 12.5782 24.9418 12.9078 26.6648 12.9902C27.6078 13.0366 28.5559 13.4435 29.448 13.8144C30.1209 14.0925 30.1158 14.4118 29.5601 14.8703C26.7056 17.219 25.2477 20.2631 25.1203 23.9717C25.105 24.4662 24.9928 24.8937 24.478 25.0843C23.9427 25.28 23.5655 25.0534 23.2291 24.6361C21.7457 22.787 20.7721 20.6906 20.242 18.4192V18.4192Z" fill="#FFB546"/>
<path d="M51 21.4427C50.1997 21.6642 49.4147 21.3963 48.6399 21.1182C45.5305 27.3815 40.5451 30.4102 33.4444 30.2299C34.729 29.1276 35.412 27.9121 35.2642 26.3359C35.1164 24.7804 34.3059 23.6781 33.0723 22.9931C33.2864 21.7569 33.6228 20.5722 33.6687 19.3772C33.7757 16.3022 32.4759 13.974 29.7284 12.537C28.5865 11.9395 27.6639 11.1102 27.0471 9.96674C26.4456 8.85417 25.5026 8.3597 24.2996 8.28244C22.5766 8.16912 22.1586 7.3862 23.1119 5.89763C24.4168 3.85277 26.3029 2.47236 28.4489 1.45766C36.1359 -2.15819 45.036 1.19497 48.5329 9.0087C49.532 11.239 49.8837 13.5877 49.8072 16.0292C49.7715 17.0954 49.8174 18.1822 50.0213 19.2227C50.1691 19.9696 50.6432 20.6443 51.0102 21.4427H51Z" fill="#8E50C0"/>
<path d="M26.9095 22.0041C29.0606 20.7834 28.3266 17.6362 30.0189 16.1477C30.753 15.5038 31.1913 15.6377 31.594 16.5443C32.2771 18.0792 32.6441 20.3249 31.9559 21.2881C31.4513 21.9938 30.4573 22.5913 29.4735 22.8076C28.6732 22.9827 25.6045 22.7355 26.9044 21.9989L26.9095 22.0041Z" fill="#FFB546"/>
<path d="M36.9004 11.8056C38.9809 11.8056 40.6675 10.1014 40.6675 7.99914C40.6675 5.89691 38.9809 4.19272 36.9004 4.19272C34.82 4.19272 33.1334 5.89691 33.1334 7.99914C33.1334 10.1014 34.82 11.8056 36.9004 11.8056Z" fill="white"/>
<path d="M36.1104 4.27513C38.1442 3.83216 40.1475 5.14561 40.5808 7.19562C41.0141 9.24563 39.7194 11.275 37.6906 11.7129C35.6618 12.1507 33.6534 10.8424 33.2201 8.79236C32.7817 6.7372 34.0816 4.71295 36.1104 4.27513ZM35.9421 3.49221C33.4852 4.02274 31.9152 6.47966 32.4402 8.96234C32.9652 11.445 35.3967 13.0315 37.8537 12.5009C40.3107 11.9704 41.8807 9.51347 41.3556 7.0308C40.8306 4.54812 38.3991 2.96168 35.9421 3.49221V3.49221Z" fill="#4D256D"/>
<path d="M38.496 5.96459C37.6294 5.25894 36.406 5.22803 35.5242 5.88733C36.4978 6.40241 36.8546 7.06686 36.559 7.81887C36.2531 8.60179 35.5293 8.81297 34.418 8.44212C34.5761 9.57014 35.3967 10.3994 36.5131 10.5539C37.6651 10.7136 38.7662 10.0749 39.23 8.98295C39.6684 7.94764 39.3575 6.6754 38.496 5.96974V5.96459ZM37.9761 9.69891C37.6549 9.77102 37.3389 9.55984 37.2726 9.23534C37.2063 8.91084 37.4102 8.59149 37.7314 8.52453C38.0525 8.45757 38.3686 8.6636 38.4348 8.9881C38.5011 9.3126 38.2972 9.63195 37.9761 9.69891Z" fill="#4D256D"/>
<path d="M25.5086 10.9806C25.7174 10.5901 25.4971 10.061 25.0166 9.79867C24.536 9.53636 23.9773 9.64022 23.7685 10.0307C23.5598 10.4211 23.7801 10.9503 24.2606 11.2126C24.7411 11.4749 25.2999 11.371 25.5086 10.9806Z" fill="#FF6686"/>
</g>
<defs>
<clipPath id="clip0_469_281">
<rect width="51" height="55" fill="white"/>
</clipPath>
</defs>
</svg>
