<svg width="30" height="34" viewBox="0 0 30 34" fill="none" xmlns="http://www.w3.org/2000/svg">
<path fill-rule="evenodd" clip-rule="evenodd" d="M11.8254 21.6667C7.44219 21.6667 3.8889 25.3976 3.8889 30V31.6667C3.8889 32.5871 3.17824 33.3333 2.3016 33.3333C1.42495 33.3333 0.714294 32.5871 0.714294 31.6667V30C0.714294 23.5567 5.6889 18.3333 11.8254 18.3333H18.1746C24.3111 18.3333 29.2857 23.5567 29.2857 30V31.6667C29.2857 32.5871 28.5751 33.3333 27.6984 33.3333C26.8218 33.3333 26.1111 32.5871 26.1111 31.6667V30C26.1111 25.3976 22.5578 21.6667 18.1746 21.6667H11.8254Z" fill="#FF6686"/>
<path fill-rule="evenodd" clip-rule="evenodd" d="M15 3.33333C12.3701 3.33333 10.2381 5.57191 10.2381 8.33333C10.2381 11.0948 12.3701 13.3333 15 13.3333C17.6299 13.3333 19.7619 11.0947 19.7619 8.33333C19.7619 5.57192 17.6299 3.33333 15 3.33333ZM7.06351 8.33333C7.06351 3.73096 10.6168 0 15 0C19.3832 0 22.9365 3.73095 22.9365 8.33333C22.9365 12.9357 19.3832 16.6667 15 16.6667C10.6168 16.6667 7.06351 12.9357 7.06351 8.33333Z" fill="#FF6686"/>
</svg>
