<svg width="30" height="34" viewBox="0 0 30 34" fill="none" xmlns="http://www.w3.org/2000/svg">
<path fill-rule="evenodd" clip-rule="evenodd" d="M11.6667 21.6667C7.06429 21.6667 3.33333 25.3976 3.33333 30V31.6667C3.33333 32.5871 2.58714 33.3333 1.66667 33.3333C0.746192 33.3333 0 32.5871 0 31.6667V30C0 23.5567 5.22334 18.3333 11.6667 18.3333H18.3333C24.7766 18.3333 30 23.5567 30 30V31.6667C30 32.5871 29.2538 33.3333 28.3333 33.3333C27.4129 33.3333 26.6667 32.5871 26.6667 31.6667V30C26.6667 25.3976 22.9357 21.6667 18.3333 21.6667H11.6667Z" fill="#FFB546"/>
<path fill-rule="evenodd" clip-rule="evenodd" d="M15 3.33333C12.2386 3.33333 10 5.57191 10 8.33333C10 11.0948 12.2386 13.3333 15 13.3333C17.7614 13.3333 20 11.0947 20 8.33333C20 5.57192 17.7614 3.33333 15 3.33333ZM6.66667 8.33333C6.66667 3.73096 10.3976 0 15 0C19.6023 0 23.3333 3.73095 23.3333 8.33333C23.3333 12.9357 19.6023 16.6667 15 16.6667C10.3976 16.6667 6.66667 12.9357 6.66667 8.33333Z" fill="#FFB546"/>
</svg>
