<svg width="18" height="20" viewBox="0 0 18 20" fill="none" xmlns="http://www.w3.org/2000/svg">
<path fill-rule="evenodd" clip-rule="evenodd" d="M7 13C4.23858 13 2 15.2386 2 18V19C2 19.5523 1.55228 20 1 20C0.447715 20 0 19.5523 0 19V18C0 14.134 3.134 11 7 11H11C14.866 11 18 14.134 18 18V19C18 19.5523 17.5523 20 17 20C16.4477 20 16 19.5523 16 19V18C16 15.2386 13.7614 13 11 13H7Z" fill="#FFB546"/>
<path fill-rule="evenodd" clip-rule="evenodd" d="M9.00049 2C7.34363 2 6.00049 3.34314 6.00049 5C6.00049 6.65686 7.34363 8 9.00049 8C10.6573 8 12.0005 6.65685 12.0005 5C12.0005 3.34315 10.6573 2 9.00049 2ZM4.00049 5C4.00049 2.23858 6.23906 0 9.00049 0C11.7619 0 14.0005 2.23857 14.0005 5C14.0005 7.76143 11.7619 10 9.00049 10C6.23906 10 4.00049 7.76143 4.00049 5Z" fill="#FFB546"/>
</svg>
