<svg width="25" height="21" viewBox="0 0 25 21" fill="none" xmlns="http://www.w3.org/2000/svg">
<path fill-rule="evenodd" clip-rule="evenodd" d="M5.67151 0.502692C4.45321 0.941992 3.37772 1.7044 2.56065 2.70795C1.74358 3.7115 1.21584 4.91825 1.03417 6.19845C0.864137 7.37277 0.988616 8.57066 1.3968 9.68573C1.97411 11.2108 3.05301 12.4948 4.45693 13.3275C5.86084 14.1603 7.5066 14.4925 9.12482 14.2697C9.80683 14.1699 10.4714 13.9726 11.0949 13.6796L12.554 14.9552L13.184 15.1408L14.7022 14.9185L15.0435 17.25L15.9358 17.9132L18.2715 17.5712L18.6128 19.9027L19.5051 20.5658L24.1764 19.8819L24.8412 18.9908L24.3162 15.405L24.0085 14.8897L15.1317 8.29249C15.248 7.55362 15.2452 6.80098 15.1234 6.06311C14.9577 5.03009 14.5657 4.0464 13.9754 3.18216C13.3851 2.31793 12.611 1.59444 11.7083 1.06326C10.8056 0.53208 9.79651 0.206297 8.75301 0.109134C7.70951 0.0119704 6.65726 0.145819 5.67128 0.501138L5.67151 0.502692ZM5.25763 11.9941C4.16372 11.3466 3.32265 10.3474 2.87215 9.16015L2.86706 9.16883C2.5428 8.29994 2.4412 7.36382 2.57151 6.44554C2.70182 5.52725 3.0599 4.65591 3.61322 3.91068C4.16653 3.16545 4.89754 2.56996 5.73983 2.17831C6.58211 1.78666 7.50897 1.61127 8.43618 1.66808C9.68885 1.75926 10.8747 2.26621 11.805 3.1082C12.7353 3.95019 13.3565 5.07882 13.5697 6.31439C13.6891 7.02087 13.6673 7.74165 13.5002 8.43608L13.7951 9.25499L22.8062 15.9548L23.1703 18.4416L20.0561 18.8975L19.7148 16.5661L18.8224 15.9029L16.4868 16.2449L16.1455 13.9134L15.2532 13.2503L13.3146 13.5341L11.7194 12.1546L10.814 12.0649C10.2203 12.4027 9.56838 12.6263 8.89217 12.7241C7.63259 12.8987 6.35117 12.6413 5.25763 11.9941V11.9941ZM5.94081 7.5567C5.79324 7.40533 5.6778 7.22579 5.60138 7.02882C5.52495 6.83184 5.48912 6.62148 5.49603 6.41032C5.50294 6.19916 5.55244 5.99154 5.64158 5.79988C5.73071 5.60822 5.85765 5.43645 6.0148 5.29486C6.17194 5.15327 6.35607 5.04477 6.55616 4.97584C6.75625 4.9069 6.96818 4.87896 7.1793 4.89368C7.39041 4.90841 7.59635 4.96549 7.78481 5.06152C7.97327 5.15755 8.14037 5.29055 8.27612 5.45256C8.53724 5.76422 8.66716 6.16484 8.63858 6.57026C8.61 6.97568 8.42515 7.35434 8.12286 7.62671C7.82056 7.89908 7.42436 8.04396 7.01746 8.0309C6.61057 8.01784 6.22466 7.84788 5.94081 7.5567V7.5567Z" fill="#FFB546"/>
</svg>
