<svg width="20" height="23" viewBox="0 0 20 23" fill="none" xmlns="http://www.w3.org/2000/svg">
<path d="M1.60496 11.7991L10.1757 3.22836C11.0502 2.35393 12.2361 1.86269 13.4728 1.86269C14.7094 1.86269 15.8954 2.35393 16.7698 3.22836C17.6442 4.10278 18.1354 5.28876 18.1354 6.52538C18.1354 7.76201 17.6442 8.94798 16.7698 9.82241L6.8787 19.7116C6.52699 20.0513 6.05593 20.2393 5.56698 20.235C5.07803 20.2308 4.6103 20.0347 4.26455 19.6889C3.91879 19.3431 3.72267 18.8754 3.71842 18.3865C3.71417 17.8975 3.90214 17.4265 4.24183 17.0747L14.131 7.18367C14.3009 7.00781 14.3949 6.77228 14.3927 6.52781C14.3906 6.28333 14.2926 6.04947 14.1197 5.87659C13.9468 5.70371 13.7129 5.60565 13.4685 5.60353C13.224 5.6014 12.9885 5.69538 12.8126 5.86523L2.92339 15.7582C2.56717 16.1022 2.28304 16.5138 2.08757 16.9688C1.8921 17.4238 1.78922 17.9132 1.78491 18.4085C1.78061 18.9037 1.87498 19.3948 2.06251 19.8532C2.25004 20.3115 2.52698 20.728 2.87716 21.0781C3.22735 21.4283 3.64378 21.7053 4.10214 21.8928C4.5605 22.0803 5.05162 22.1747 5.54684 22.1704C6.04207 22.1661 6.53147 22.0632 6.98651 21.8677C7.44154 21.6723 7.85309 21.3881 8.19714 21.0319L18.0882 11.1427C19.3123 9.91861 20 8.25838 20 6.52725C20 4.79611 19.3123 3.13588 18.0882 1.91179C16.8641 0.68769 15.2039 0 13.4728 0C11.7416 0 10.0814 0.68769 8.85729 1.91179L0.284655 10.4807C0.1956 10.5667 0.124567 10.6696 0.0756995 10.7834C0.0268325 10.8971 0.00111104 11.0195 3.52053e-05 11.1433C-0.00104063 11.2671 0.0225509 11.3899 0.0694336 11.5044C0.116316 11.619 0.185551 11.7231 0.273098 11.8107C0.360645 11.8982 0.464752 11.9675 0.579342 12.0143C0.693933 12.0612 0.816713 12.0848 0.940518 12.0837C1.06432 12.0827 1.18668 12.057 1.30043 12.0081C1.41419 11.9592 1.51708 11.8882 1.60309 11.7991H1.60496Z" fill="#FFB546"/>
</svg>
