<svg width="80" height="80" viewBox="0 0 80 80" fill="none" xmlns="http://www.w3.org/2000/svg">
<g clip-path="url(#clip0_466_225)">
<path d="M78.7334 65.5148C76.5184 65.6369 74.616 64.5116 72.7402 63.3439C61.1352 77.8237 46.4144 82.8874 27.9525 78.4288C31.9268 76.3004 34.3802 73.5244 34.8678 69.3524C35.3447 65.2441 33.8397 61.9214 30.9888 59.4586C32.2288 56.3694 33.7761 53.4925 34.5498 50.4193C36.5423 42.5053 34.4279 35.7378 28.0479 30.4777C25.393 28.2855 23.443 25.6157 22.4626 22.3089C21.5141 19.0923 19.3097 17.277 16.2097 16.3959C11.7638 15.1274 11.112 12.8768 14.424 9.54881C18.9706 4.98405 24.667 2.46282 30.8405 1.05093C52.9429 -4.00745 74.3564 9.69212 79.1573 31.9002C80.5298 38.2484 80.1536 44.5276 78.5903 50.8121C77.9121 53.5509 77.4139 56.4012 77.3769 59.2091C77.3451 61.2208 78.2141 63.2484 78.7334 65.5148V65.5148Z" fill="#8E50C0"/>
<path d="M0 40.4193C0.0370935 35.3715 0.943234 30.6422 3.53448 26.3641C4.19156 25.276 4.99702 24.2569 5.87136 23.328C6.66093 22.4947 7.68365 22.3461 8.4838 23.3492C11.4089 27.0329 15.3355 28.7739 19.7973 29.9575C22.2349 30.6051 24.487 32.1921 26.6172 33.6571C28.2281 34.7611 28.0268 35.5785 26.3258 36.4543C17.5611 40.9448 12.0554 48.0148 9.67079 57.5478C9.35285 58.8216 8.82294 59.8726 7.3657 60.0743C5.85547 60.2813 4.99702 59.4745 4.35583 58.2059C1.51023 52.5796 0.127178 46.603 0 40.4193Z" fill="#FFB546"/>
<path d="M15.4414 53.4554C21.7473 51.5021 21.5778 42.9246 26.8238 40.0265C29.1077 38.7686 30.1728 39.3684 30.7292 41.948C31.6619 46.311 31.3757 52.3355 29.0441 54.4533C27.3378 56.0032 24.4075 56.9904 21.7155 56.9904C19.5323 56.9904 11.6314 54.6338 15.4414 53.4554V53.4554Z" fill="#FFB546"/>
<path d="M49.329 32.8397C54.8895 32.8397 59.3972 28.3245 59.3972 22.7548C59.3972 17.185 54.8895 12.6699 49.329 12.6699C43.7684 12.6699 39.2607 17.185 39.2607 22.7548C39.2607 28.3245 43.7684 32.8397 49.329 32.8397Z" fill="white"/>
<path d="M49.329 12.6699C54.8877 12.6699 59.3972 17.1868 59.3972 22.7548C59.3972 28.3227 54.8877 32.8397 49.329 32.8397C43.7702 32.8397 39.2607 28.3227 39.2607 22.7548C39.2607 17.1868 43.7702 12.6699 49.329 12.6699M49.329 10.5467C42.6097 10.5467 37.1411 16.0244 37.1411 22.7548C37.1411 29.4852 42.6097 34.9629 49.329 34.9629C56.0482 34.9629 61.5168 29.4852 61.5168 22.7548C61.5168 16.0244 56.0482 10.5467 49.329 10.5467Z" fill="#4D256D"/>
<path d="M54.6281 18.3917C52.7575 16.0722 49.5675 15.3025 46.8968 16.518C49.1542 18.4023 49.7159 20.3185 48.5289 22.0966C47.2942 23.9543 45.2805 24.0923 42.5833 22.5053C42.3714 25.5255 44.0565 28.121 46.8968 29.1507C49.8218 30.2123 53.0543 29.1773 54.8666 26.603C56.5835 24.1613 56.4828 20.69 54.6228 18.3864L54.6281 18.3917ZM51.1996 27.7813C50.32 27.7813 49.6099 27.0701 49.6099 26.1889C49.6099 25.3078 50.32 24.5966 51.1996 24.5966C52.0793 24.5966 52.7893 25.3078 52.7893 26.1889C52.7893 27.0701 52.0793 27.7813 51.1996 27.7813Z" fill="#4D256D"/>
<path d="M17.8989 24.0973C18.6588 23.2054 18.3726 21.711 17.2596 20.7595C16.1465 19.8079 14.6282 19.7596 13.8682 20.6515C13.1083 21.5434 13.3945 23.0378 14.5075 23.9893C15.6205 24.9409 17.1389 24.9892 17.8989 24.0973Z" fill="#FF6686"/>
</g>
<defs>
<clipPath id="clip0_466_225">
<rect width="80" height="80" fill="white"/>
</clipPath>
</defs>
</svg>
